<svg width="23" height="12" viewBox="0 0 23 12" fill="none" xmlns="http://www.w3.org/2000/svg">
<path d="M7.93212 4.77887C7.93212 5.70687 7.55212 6.59087 6.79212 7.43087C6.03212 8.26287 5.22812 8.67888 4.38012 8.67888C3.83612 8.67888 3.46812 8.43488 3.27612 7.94687L2.26812 10.4309C2.20412 10.5829 2.16012 10.7069 2.13612 10.8029C2.06412 11.0029 1.98412 11.1789 1.89612 11.3309C2.48012 11.3549 2.77212 11.3949 2.77212 11.4509C2.77212 11.5149 2.67212 11.5469 2.47212 11.5469C2.29612 11.5469 2.08012 11.5389 1.82412 11.5229L1.46412 11.4989C1.47212 11.4989 1.40012 11.5029 1.24812 11.5109C1.07212 11.5189 0.900119 11.5269 0.732119 11.5349L0.252119 11.5469C0.084119 11.5549 0.00011903 11.5229 0.00011903 11.4509C0.00011903 11.3709 0.112119 11.3269 0.336119 11.3189C0.632119 11.3029 0.816119 11.2669 0.888119 11.2109C0.960119 11.1549 1.06412 10.9669 1.20012 10.6469L3.88812 4.19087C4.02412 3.86287 4.09212 3.69087 4.09212 3.67487C4.09212 3.61087 4.04412 3.57887 3.94812 3.57887H3.82812C3.78812 3.58687 3.72412 3.59087 3.63612 3.59087C3.49212 3.59087 3.42012 3.55887 3.42012 3.49487C3.42012 3.43887 3.46812 3.41087 3.56412 3.41087H3.75612C4.39612 3.41087 4.81212 3.38687 5.00412 3.33887C5.06812 3.32287 5.10812 3.31487 5.12412 3.31487C5.17212 3.31487 5.19612 3.33887 5.19612 3.38687C5.19612 3.43487 5.08412 3.70687 4.86012 4.20287C5.22812 3.87487 5.52012 3.65487 5.73612 3.54287C5.96012 3.42287 6.20412 3.36287 6.46812 3.36287C6.89212 3.36287 7.24012 3.49487 7.51212 3.75887C7.79212 4.02287 7.93212 4.36287 7.93212 4.77887ZM6.91212 4.35887C6.91212 3.88687 6.70012 3.65087 6.27612 3.65087C5.86012 3.65087 5.43612 3.89887 5.00412 4.39487C4.66812 4.77887 4.33612 5.38287 4.00812 6.20687L3.61212 7.19087C3.52412 7.40687 3.48012 7.56687 3.48012 7.67087C3.48012 7.87887 3.56012 8.05887 3.72012 8.21087C3.88012 8.36287 4.07212 8.43887 4.29612 8.43887C4.94412 8.43887 5.56012 7.89487 6.14412 6.80687C6.65612 5.85487 6.91212 5.03887 6.91212 4.35887ZM13.7443 7.65887C13.7443 7.71487 13.6683 7.80687 13.5163 7.93487C12.9483 8.41487 12.4323 8.65488 11.9683 8.65488C11.7443 8.65488 11.5643 8.59488 11.4283 8.47487C11.2923 8.34687 11.2243 8.18287 11.2243 7.98287C11.2243 7.81487 11.3203 7.51487 11.5123 7.08287L12.5683 4.71887C12.7443 4.32687 12.8323 4.08287 12.8323 3.98687C12.8323 3.73887 12.7003 3.61487 12.4363 3.61487C12.1083 3.61487 11.7083 3.83887 11.2363 4.28687C10.8763 4.63087 10.6003 4.94287 10.4083 5.22287C10.2243 5.50287 10.0043 5.93487 9.74834 6.51887L8.96834 8.27087C8.90434 8.42287 8.86034 8.51087 8.83634 8.53487C8.81234 8.55888 8.76434 8.57088 8.69234 8.57088C8.66034 8.57088 8.55234 8.56288 8.36834 8.54688C8.12034 8.56288 7.98434 8.57488 7.96034 8.58288C7.92834 8.59088 7.89634 8.59488 7.86434 8.59488C7.83234 8.59488 7.81634 8.58288 7.81634 8.55888C7.81634 8.52687 7.84434 8.44687 7.90034 8.31887L11.2003 0.806875C11.3203 0.534875 11.3803 0.378875 11.3803 0.338875C11.3803 0.274875 11.3603 0.238875 11.3203 0.230875C11.2883 0.222875 11.1603 0.218875 10.9363 0.218875C10.7443 0.218875 10.6483 0.178875 10.6483 0.0988743C10.6483 0.0588744 10.6763 0.0388744 10.7323 0.0388744C10.7883 0.0388744 10.8323 0.0428746 10.8643 0.0508749L11.7523 0.0628748C11.9283 0.0628748 12.0963 0.0508747 12.2563 0.0268745C12.3523 0.0108747 12.4163 0.00287485 12.4483 0.00287485C12.5203 0.00287485 12.5563 0.0308747 12.5563 0.0868745C12.5563 0.142875 12.5403 0.190875 12.5083 0.230875C12.4523 0.366874 12.4003 0.474874 12.3523 0.554875L10.4083 4.86287C10.9123 4.29487 11.3323 3.90287 11.6683 3.68687C12.0043 3.46287 12.3563 3.35087 12.7243 3.35087C13.0203 3.35087 13.2603 3.42287 13.4443 3.56687C13.6363 3.70287 13.7323 3.87887 13.7323 4.09487C13.7323 4.33487 13.6403 4.66687 13.4563 5.09087L12.3643 7.59887C12.2283 7.91087 12.1603 8.09887 12.1603 8.16287C12.1603 8.28287 12.2203 8.34287 12.3403 8.34287C12.6043 8.34287 12.9723 8.14287 13.4443 7.74287C13.5643 7.63887 13.6443 7.58687 13.6843 7.58687C13.7243 7.58687 13.7443 7.61087 13.7443 7.65887ZM17.9081 1.21487C17.9081 1.55087 17.7521 1.71887 17.4401 1.71887C17.2801 1.71887 17.1481 1.67087 17.0441 1.57487C16.9401 1.47087 16.8881 1.34287 16.8881 1.19087C16.8881 0.862875 17.0721 0.698874 17.4401 0.698874C17.7521 0.698874 17.9081 0.870875 17.9081 1.21487ZM17.0801 3.45887C17.0801 3.48287 17.0601 3.53087 17.0201 3.60287C16.9641 3.69887 16.8721 3.89487 16.7441 4.19087L15.3641 7.34687C15.1801 7.77087 15.0881 8.03487 15.0881 8.13887C15.0881 8.35487 15.2001 8.46287 15.4241 8.46287C15.5761 8.46287 15.7481 8.41087 15.9401 8.30687C16.1401 8.19487 16.2921 8.06287 16.3961 7.91087C16.4681 7.81487 16.5241 7.76687 16.5641 7.76687C16.6121 7.76687 16.6361 7.79087 16.6361 7.83887C16.6361 7.93487 16.5241 8.07887 16.3001 8.27087C15.9641 8.55887 15.5841 8.70288 15.1601 8.70288C14.8801 8.70288 14.6481 8.63088 14.4641 8.48687C14.2881 8.34287 14.2001 8.15887 14.2001 7.93487C14.2001 7.73487 14.3001 7.41087 14.5001 6.96288L15.7481 4.17887C15.7881 4.04287 15.8361 3.93887 15.8921 3.86687C15.9161 3.83487 15.9281 3.80687 15.9281 3.78287C15.9281 3.71087 15.7521 3.66287 15.4001 3.63887C15.3361 3.62287 15.3041 3.59487 15.3041 3.55487C15.3041 3.48287 15.3361 3.44687 15.4001 3.44687C15.4081 3.44687 15.4681 3.45487 15.5801 3.47087C15.6921 3.48687 15.8721 3.49487 16.1201 3.49487C16.4561 3.49487 16.6921 3.46687 16.8281 3.41087C16.9081 3.37887 16.9641 3.36287 16.9961 3.36287C17.0521 3.36287 17.0801 3.39487 17.0801 3.45887ZM22.9029 3.43487C22.9029 3.45887 22.8709 3.54287 22.8069 3.68687L21.2229 7.28687C21.0709 7.63087 20.9949 7.89487 20.9949 8.07887C20.9949 8.28687 21.0989 8.39087 21.3069 8.39087C21.6189 8.39087 21.9309 8.17887 22.2429 7.75488C22.3069 7.66687 22.3549 7.62287 22.3869 7.62287C22.4189 7.62287 22.4349 7.63887 22.4349 7.67087C22.4349 7.75887 22.3469 7.89887 22.1709 8.09087C21.8189 8.46687 21.3989 8.65488 20.9109 8.65488C20.6629 8.65488 20.4589 8.59488 20.2989 8.47487C20.1469 8.35487 20.0709 8.19887 20.0709 8.00687C20.0709 7.88687 20.0989 7.74687 20.1549 7.58687C19.6509 8.33087 19.0669 8.70288 18.4029 8.70288C17.9869 8.70288 17.6469 8.57087 17.3829 8.30687C17.1189 8.03487 16.9869 7.69087 16.9869 7.27487C16.9869 6.81887 17.1389 6.31887 17.4429 5.77487C17.7469 5.23087 18.1509 4.73487 18.6549 4.28687C19.3429 3.67887 19.9749 3.37487 20.5509 3.37487C21.1509 3.37487 21.4869 3.66287 21.5589 4.23887L21.8589 3.60287C21.9229 3.47487 21.9789 3.41087 22.0269 3.41087C22.0429 3.41087 22.0909 3.41887 22.1709 3.43487C22.2509 3.45087 22.3069 3.45887 22.3389 3.45887C22.5149 3.45887 22.6509 3.43487 22.7469 3.38687C22.7789 3.36287 22.8069 3.35087 22.8309 3.35087C22.8789 3.35087 22.9029 3.37887 22.9029 3.43487ZM21.3909 4.45487C21.3909 4.20687 21.3149 4.00687 21.1629 3.85487C21.0189 3.70287 20.8309 3.62687 20.5989 3.62687C20.1989 3.62687 19.8149 3.86287 19.4469 4.33487C19.0229 4.87087 18.6829 5.43887 18.4269 6.03887C18.1709 6.63087 18.0429 7.15087 18.0429 7.59887C18.0429 8.14287 18.2669 8.41487 18.7149 8.41487C18.9709 8.41487 19.2469 8.27487 19.5429 7.99487C19.8469 7.71487 20.0989 7.36287 20.2989 6.93887L21.2349 4.92287C21.3389 4.69887 21.3909 4.54287 21.3909 4.45487Z" fill="black"/>
</svg>
